<svg width="412" height="92" viewBox="0 0 412 92" fill="none" xmlns="http://www.w3.org/2000/svg">
<path d="M125.185 63.4422C122.078 63.4422 119.448 62.9639 117.295 62.0073C115.182 61.0507 113.546 59.7406 112.387 58.0769C111.227 56.3716 110.564 54.4168 110.398 52.2125L117.17 51.9005C117.502 53.7306 118.289 55.1863 119.531 56.2676C120.774 57.349 122.658 57.8897 125.185 57.8897C127.256 57.8897 128.892 57.557 130.093 56.8915C131.294 56.2261 131.895 55.1655 131.895 53.7098C131.895 52.9195 131.688 52.2541 131.273 51.7134C130.901 51.1311 130.155 50.6528 129.037 50.2785C127.918 49.8625 126.262 49.4674 124.067 49.0931C120.794 48.4692 118.227 47.7414 116.363 46.9095C114.499 46.0777 113.173 45.0171 112.387 43.7278C111.6 42.4384 111.206 40.8787 111.206 39.0487C111.206 36.0125 112.324 33.5378 114.561 31.6246C116.839 29.7114 120.111 28.7548 124.377 28.7548C127.235 28.7548 129.637 29.2539 131.584 30.2521C133.531 31.2087 135.042 32.5188 136.119 34.1825C137.238 35.8046 137.942 37.6346 138.232 39.6726L131.46 40.0469C131.253 38.8823 130.838 37.8841 130.217 37.0523C129.637 36.1789 128.85 35.5134 127.856 35.0559C126.862 34.5568 125.682 34.3072 124.315 34.3072C122.203 34.3072 120.629 34.7232 119.593 35.555C118.558 36.3868 118.04 37.4682 118.04 38.7991C118.04 39.7973 118.268 40.6084 118.724 41.2323C119.221 41.8561 120.008 42.376 121.084 42.792C122.161 43.1663 123.59 43.499 125.371 43.7902C128.809 44.3724 131.501 45.1003 133.448 45.9737C135.394 46.8055 136.761 47.8453 137.548 49.0931C138.335 50.3408 138.729 51.8589 138.729 53.6474C138.729 55.727 138.149 57.4946 136.989 58.9503C135.829 60.406 134.235 61.529 132.205 62.3192C130.176 63.0679 127.836 63.4422 125.185 63.4422Z" fill="#F3F4F6"/>
<path d="M154.99 62.6936C151.842 62.6936 149.523 61.9657 148.032 60.51C146.541 59.0543 145.795 56.7875 145.795 53.7098V21.705H152.381V53.2107C152.381 54.7496 152.712 55.8101 153.375 56.3924C154.037 56.9747 155.052 57.2658 156.419 57.2658H161.141V62.6936H154.99ZM140.763 34.9311V29.5034H161.141V34.9311H140.763Z" fill="#F3F4F6"/>
<path d="M174.645 63.4422C171.208 63.4422 168.453 62.652 166.382 61.0715C164.353 59.491 163.338 57.2658 163.338 54.396C163.338 51.5262 164.187 49.301 165.885 47.7206C167.625 46.0985 170.296 44.9339 173.9 44.2269L185.269 42.0433C185.269 39.4646 184.669 37.5514 183.467 36.3037C182.266 35.0143 180.485 34.3696 178.124 34.3696C176.012 34.3696 174.355 34.8479 173.154 35.8045C171.953 36.7196 171.125 38.0921 170.669 39.9221L163.897 39.4854C164.518 36.1581 166.051 33.5378 168.495 31.6246C170.98 29.7114 174.19 28.7548 178.124 28.7548C182.598 28.7548 185.994 29.9609 188.313 32.3732C190.674 34.744 191.855 38.0921 191.855 42.4176V55.3318C191.855 56.1221 191.979 56.6836 192.227 57.0163C192.517 57.3074 192.973 57.453 193.594 57.453H194.775V62.6936C194.568 62.7352 194.236 62.7767 193.781 62.8183C193.325 62.8599 192.849 62.8807 192.352 62.8807C190.943 62.8807 189.722 62.652 188.686 62.1945C187.692 61.737 186.947 60.9883 186.45 59.9485C185.953 58.8671 185.704 57.4322 185.704 55.6438L186.387 55.9557C186.056 57.4114 185.331 58.7008 184.213 59.8237C183.136 60.9467 181.749 61.8409 180.05 62.5064C178.394 63.1303 176.592 63.4422 174.645 63.4422ZM175.701 58.2017C177.69 58.2017 179.388 57.8273 180.796 57.0787C182.204 56.2884 183.302 55.2071 184.089 53.8345C184.876 52.462 185.269 50.9023 185.269 49.1555V47.0343L175.577 48.9059C173.589 49.2803 172.181 49.8833 171.353 50.7152C170.566 51.5054 170.172 52.5244 170.172 53.7722C170.172 55.1863 170.648 56.2884 171.601 57.0787C172.595 57.8273 173.962 58.2017 175.701 58.2017Z" fill="#F3F4F6"/>
<path d="M214.632 63.4422C212.354 63.4422 210.324 62.9431 208.543 61.9449C206.804 60.9051 205.458 59.491 204.505 57.7026L204.319 62.6936H198.168V18.3984H204.753V34.1825C205.623 32.7268 206.907 31.4582 208.605 30.3768C210.345 29.2955 212.354 28.7548 214.632 28.7548C217.49 28.7548 219.975 29.4618 222.087 30.8759C224.199 32.2901 225.815 34.3073 226.933 36.9275C228.093 39.5062 228.673 42.5632 228.673 46.0985C228.673 49.6338 228.093 52.7116 226.933 55.3318C225.815 57.9105 224.199 59.9069 222.087 61.321C219.975 62.7352 217.49 63.4422 214.632 63.4422ZM213.576 57.7026C216.102 57.7026 218.111 56.6836 219.602 54.6456C221.093 52.566 221.839 49.717 221.839 46.0985C221.839 42.48 221.093 39.6518 219.602 37.6138C218.111 35.5342 216.123 34.4944 213.638 34.4944C211.774 34.4944 210.179 34.9519 208.854 35.8669C207.528 36.782 206.514 38.1129 205.81 39.8597C205.105 41.565 204.753 43.6446 204.753 46.0985C204.753 48.4692 205.105 50.528 205.81 52.2749C206.514 54.0217 207.528 55.3734 208.854 56.33C210.179 57.2451 211.753 57.7026 213.576 57.7026Z" fill="#F3F4F6"/>
<path d="M241.006 62.6936C238.852 62.6936 237.113 62.1321 235.787 61.0091C234.462 59.8861 233.799 58.0977 233.799 55.6438V18.3984H240.385V55.0199C240.385 55.7685 240.571 56.33 240.944 56.7044C241.358 57.0787 241.938 57.2658 242.683 57.2658H245.293V62.6936H241.006Z" fill="#F3F4F6"/>
<path d="M262.651 63.4422C259.42 63.4422 256.624 62.7352 254.263 61.321C251.944 59.9069 250.142 57.8897 248.858 55.2695C247.616 52.6492 246.994 49.5922 246.994 46.0985C246.994 42.6048 247.616 39.5686 248.858 36.9899C250.142 34.3696 251.944 32.3524 254.263 30.9383C256.583 29.4826 259.316 28.7548 262.464 28.7548C265.446 28.7548 268.076 29.4618 270.354 30.8759C272.632 32.2485 274.393 34.2449 275.635 36.8651C276.919 39.4854 277.561 42.6464 277.561 46.348V48.0325H253.829C253.994 51.2767 254.843 53.7098 256.376 55.3318C257.95 56.9539 260.062 57.7649 262.713 57.7649C264.659 57.7649 266.275 57.3074 267.559 56.3924C268.843 55.4774 269.733 54.2505 270.23 52.7116L277.064 53.1483C276.194 56.2261 274.476 58.7216 271.908 60.6348C269.381 62.5064 266.295 63.4422 262.651 63.4422ZM253.829 43.0415H270.603C270.396 40.0885 269.547 37.9049 268.056 36.4908C266.606 35.0767 264.742 34.3696 262.464 34.3696C260.103 34.3696 258.157 35.1183 256.624 36.6156C255.133 38.0713 254.201 40.2133 253.829 43.0415Z" fill="#F3F4F6"/>
<path d="M283.203 72.0517V66.624H287.241C288.359 66.624 289.188 66.4576 289.726 66.1249C290.265 65.7921 290.679 65.2307 290.969 64.4404L292.025 61.6954H289.975L278.046 29.5034H285.004L294.075 55.5814L302.711 29.5034H309.731L296.56 66.5616C295.898 68.4748 294.903 69.8681 293.578 70.7415C292.294 71.615 290.492 72.0517 288.173 72.0517H283.203Z" fill="#F3F4F6"/>
<path d="M321.555 63.4422C318.118 63.4422 315.363 62.652 313.292 61.0715C311.263 59.491 310.248 57.2658 310.248 54.396C310.248 51.5262 311.097 49.301 312.795 47.7206C314.535 46.0985 317.207 44.9339 320.81 44.2269L332.179 42.0433C332.179 39.4646 331.579 37.5514 330.378 36.3037C329.176 35.0143 327.395 34.3696 325.035 34.3696C322.922 34.3696 321.266 34.8479 320.064 35.8045C318.863 36.7196 318.035 38.0921 317.579 39.9221L310.807 39.4854C311.429 36.1581 312.961 33.5378 315.405 31.6246C317.89 29.7114 321.1 28.7548 325.035 28.7548C329.508 28.7548 332.904 29.9609 335.224 32.3732C337.584 34.744 338.765 38.0921 338.765 42.4176V55.3318C338.765 56.1221 338.889 56.6836 339.138 57.0163C339.428 57.3074 339.883 57.453 340.504 57.453H341.685V62.6936C341.478 62.7352 341.146 62.7767 340.691 62.8183C340.235 62.8599 339.759 62.8807 339.262 62.8807C337.854 62.8807 336.632 62.652 335.596 62.1945C334.602 61.737 333.857 60.9883 333.36 59.9485C332.863 58.8671 332.614 57.4322 332.614 55.6438L333.298 55.9557C332.966 57.4114 332.241 58.7008 331.123 59.8237C330.046 60.9467 328.659 61.8409 326.961 62.5064C325.304 63.1303 323.502 63.4422 321.555 63.4422ZM322.612 58.2017C324.6 58.2017 326.298 57.8273 327.706 57.0787C329.114 56.2884 330.212 55.2071 330.999 53.8345C331.786 52.462 332.179 50.9023 332.179 49.1555V47.0343L322.487 48.9059C320.499 49.2803 319.091 49.8833 318.263 50.7152C317.476 51.5054 317.082 52.5244 317.082 53.7722C317.082 55.1863 317.559 56.2884 318.511 57.0787C319.505 57.8273 320.872 58.2017 322.612 58.2017Z" fill="#F3F4F6"/>
<path d="M345.381 62.6936V29.5034H351.408L351.656 38.3L351.097 38.1129C351.553 35.1183 352.464 32.9347 353.831 31.5622C355.239 30.1897 357.124 29.5034 359.484 29.5034H362.653V35.4302H359.484C357.828 35.4302 356.44 35.7006 355.322 36.2413C354.204 36.782 353.355 37.6138 352.775 38.7368C352.236 39.8597 351.967 41.3154 351.967 43.1039V62.6936H345.381Z" fill="#F3F4F6"/>
<path d="M377.223 63.4422C374.406 63.4422 371.942 62.7352 369.83 61.321C367.759 59.9069 366.164 57.9105 365.046 55.3318C363.969 52.7116 363.431 49.6338 363.431 46.0985C363.431 42.5632 363.99 39.5062 365.108 36.9275C366.226 34.3073 367.821 32.2901 369.892 30.8759C371.963 29.4618 374.406 28.7548 377.223 28.7548C379.501 28.7548 381.53 29.2331 383.311 30.1897C385.092 31.1463 386.438 32.4772 387.35 34.1825V18.3984H393.935V62.6936H387.785L387.598 57.7026C386.687 59.491 385.299 60.9051 383.436 61.9449C381.613 62.9431 379.542 63.4422 377.223 63.4422ZM378.962 57.7026C380.743 57.7026 382.255 57.2451 383.498 56.33C384.74 55.415 385.693 54.0841 386.356 52.3372C387.018 50.5904 387.35 48.5108 387.35 46.0985C387.35 43.603 387.018 41.5026 386.356 39.7974C385.693 38.0505 384.74 36.7404 383.498 35.8669C382.255 34.9519 380.743 34.4944 378.962 34.4944C376.312 34.4944 374.199 35.5342 372.625 37.6138C371.052 39.6518 370.265 42.48 370.265 46.0985C370.265 49.6754 371.052 52.5036 372.625 54.5832C374.199 56.6628 376.312 57.7026 378.962 57.7026Z" fill="#F3F4F6"/>
<rect x="18.3984" y="9.19922" width="73.6" height="73.6" rx="13.8" fill="#2F2F2F"/>
<path fill-rule="evenodd" clip-rule="evenodd" d="M68.3371 23C68.5168 23 68.6623 23.1455 68.6625 23.3249V29.8724C68.6625 31.3083 69.8279 32.4722 71.2654 32.4722H77.8779C78.0575 32.4723 78.2031 32.6177 78.2031 32.7972V54.4009C78.2031 54.4876 78.1685 54.5706 78.107 54.6317L63.7032 68.9057C63.6424 68.966 63.5599 68.9999 63.4741 69H42.0692C41.8896 68.9999 41.7439 68.8545 41.7439 68.675V62.1276C41.7439 60.6917 40.5785 59.5277 39.1408 59.5277H32.5284C32.3488 59.5277 32.2032 59.3823 32.2031 59.2028V37.5989C32.2031 37.5123 32.2377 37.4292 32.2993 37.3683L46.703 23.0943C46.764 23.0339 46.8464 23 46.9322 23H68.3371ZM44.8012 33.2096C43.3636 33.2096 42.1982 34.3736 42.1982 35.8094V56.9653C42.1982 57.1367 42.2148 57.3043 42.2466 57.4666C42.4333 58.4207 43.4947 58.7904 44.4669 58.7904H65.6051C67.0426 58.7904 68.2081 57.6263 68.2081 56.1905V35.0347C68.2081 34.8633 68.1914 34.6957 68.1597 34.5334C67.9731 33.5792 66.9116 33.2096 65.9394 33.2096H44.8012Z" fill="white"/>
</svg>
